<mxfile host="65bd71144e">
    <diagram name="Seite-1" id="Kk1YufoIKa3ehbr1yTi4">
        <mxGraphModel dx="533" dy="383" grid="1" gridSize="10" guides="1" tooltips="1" connect="1" arrows="1" fold="1" page="1" pageScale="1" pageWidth="1169" pageHeight="827" math="0" shadow="0">
            <root>
                <mxCell id="0"/>
                <mxCell id="1" parent="0"/>
                <mxCell id="H0RL9zHFu7Bb7agK2Nix-1" value="" style="rounded=0;whiteSpace=wrap;html=1;fillColor=none;movable=1;resizable=1;rotatable=1;deletable=1;editable=1;locked=0;connectable=1;" parent="1" vertex="1">
                    <mxGeometry x="440" y="380" width="100" height="120" as="geometry"/>
                </mxCell>
                <mxCell id="H0RL9zHFu7Bb7agK2Nix-2" value="A1" style="text;html=1;align=left;verticalAlign=middle;whiteSpace=wrap;rounded=0;labelPosition=center;verticalLabelPosition=middle;movable=1;resizable=1;rotatable=1;deletable=1;editable=1;locked=0;connectable=1;" parent="1" vertex="1">
                    <mxGeometry x="440" y="420" width="40" height="20" as="geometry"/>
                </mxCell>
                <mxCell id="H0RL9zHFu7Bb7agK2Nix-3" value="A2" style="text;html=1;align=left;verticalAlign=middle;whiteSpace=wrap;rounded=0;labelPosition=center;verticalLabelPosition=middle;movable=1;resizable=1;rotatable=1;deletable=1;editable=1;locked=0;connectable=1;" parent="1" vertex="1">
                    <mxGeometry x="440" y="440" width="40" height="20" as="geometry"/>
                </mxCell>
                <mxCell id="H0RL9zHFu7Bb7agK2Nix-4" value="WD2" style="text;html=1;align=left;verticalAlign=middle;whiteSpace=wrap;rounded=0;labelPosition=center;verticalLabelPosition=middle;movable=1;resizable=1;rotatable=1;deletable=1;editable=1;locked=0;connectable=1;" parent="1" vertex="1">
                    <mxGeometry x="440" y="460" width="40" height="20" as="geometry"/>
                </mxCell>
                <mxCell id="H0RL9zHFu7Bb7agK2Nix-6" value="RD1" style="text;html=1;align=right;verticalAlign=middle;whiteSpace=wrap;rounded=0;labelPosition=center;verticalLabelPosition=middle;movable=1;resizable=1;rotatable=1;deletable=1;editable=1;locked=0;connectable=1;" parent="1" vertex="1">
                    <mxGeometry x="500" y="420" width="40" height="20" as="geometry"/>
                </mxCell>
                <mxCell id="H0RL9zHFu7Bb7agK2Nix-7" value="Reg0" style="text;html=1;align=right;verticalAlign=middle;whiteSpace=wrap;rounded=0;labelPosition=center;verticalLabelPosition=middle;movable=1;resizable=1;rotatable=1;deletable=1;editable=1;locked=0;connectable=1;" parent="1" vertex="1">
                    <mxGeometry x="500" y="440" width="40" height="20" as="geometry"/>
                </mxCell>
                <mxCell id="H0RL9zHFu7Bb7agK2Nix-8" value="Reg1" style="text;html=1;align=right;verticalAlign=middle;whiteSpace=wrap;rounded=0;labelPosition=center;verticalLabelPosition=middle;movable=1;resizable=1;rotatable=1;deletable=1;editable=1;locked=0;connectable=1;" parent="1" vertex="1">
                    <mxGeometry x="500" y="460" width="40" height="20" as="geometry"/>
                </mxCell>
                <mxCell id="H0RL9zHFu7Bb7agK2Nix-9" value="" style="triangle;whiteSpace=wrap;html=1;rotation=90;movable=1;resizable=1;rotatable=1;deletable=1;editable=1;locked=0;connectable=1;" parent="1" vertex="1">
                    <mxGeometry x="455" y="375" width="10" height="20" as="geometry"/>
                </mxCell>
                <mxCell id="H0RL9zHFu7Bb7agK2Nix-10" value="" style="endArrow=none;html=1;rounded=0;strokeWidth=1;movable=1;resizable=1;rotatable=1;deletable=1;editable=1;locked=0;connectable=1;" parent="1" edge="1">
                    <mxGeometry width="50" height="50" relative="1" as="geometry">
                        <mxPoint x="459.93000000000006" y="380" as="sourcePoint"/>
                        <mxPoint x="460" y="370" as="targetPoint"/>
                        <Array as="points">
                            <mxPoint x="459.93000000000006" y="380"/>
                        </Array>
                    </mxGeometry>
                </mxCell>
                <mxCell id="H0RL9zHFu7Bb7agK2Nix-11" value="clk" style="text;html=1;align=center;verticalAlign=middle;whiteSpace=wrap;rounded=0;movable=1;resizable=1;rotatable=1;deletable=1;editable=1;locked=0;connectable=1;" parent="1" vertex="1">
                    <mxGeometry x="450" y="360" width="20" height="10" as="geometry"/>
                </mxCell>
                <mxCell id="H0RL9zHFu7Bb7agK2Nix-12" value="Register File" style="text;html=1;align=center;verticalAlign=middle;whiteSpace=wrap;rounded=0;fontSize=15;fontStyle=1;movable=1;resizable=1;rotatable=1;deletable=1;editable=1;locked=0;connectable=1;" parent="1" vertex="1">
                    <mxGeometry x="440" y="400" width="100" height="20" as="geometry"/>
                </mxCell>
                <mxCell id="H0RL9zHFu7Bb7agK2Nix-13" value="WE2" style="text;html=1;align=center;verticalAlign=middle;whiteSpace=wrap;rounded=0;spacingTop=0;spacingBottom=4;movable=1;resizable=1;rotatable=1;deletable=1;editable=1;locked=0;connectable=1;" parent="1" vertex="1">
                    <mxGeometry x="490" y="380" width="40" height="20" as="geometry"/>
                </mxCell>
                <mxCell id="H0RL9zHFu7Bb7agK2Nix-14" value="" style="rounded=1;whiteSpace=wrap;html=1;fontColor=none;noLabel=1;fillColor=none;" parent="1" vertex="1">
                    <mxGeometry x="440" y="160" width="100" height="120" as="geometry"/>
                </mxCell>
                <mxCell id="H0RL9zHFu7Bb7agK2Nix-16" value="instr" style="text;html=1;align=left;verticalAlign=middle;whiteSpace=wrap;rounded=0;labelPosition=center;verticalLabelPosition=middle;movable=1;resizable=1;rotatable=1;deletable=1;editable=1;locked=0;connectable=1;" parent="1" vertex="1">
                    <mxGeometry x="440" y="250" width="40" height="20" as="geometry"/>
                </mxCell>
                <mxCell id="H0RL9zHFu7Bb7agK2Nix-17" value="" style="rounded=0;whiteSpace=wrap;html=1;fillColor=none;" parent="1" vertex="1">
                    <mxGeometry x="270" y="280" width="20" height="40" as="geometry"/>
                </mxCell>
                <mxCell id="H0RL9zHFu7Bb7agK2Nix-19" value="halt" style="text;html=1;align=right;verticalAlign=middle;whiteSpace=wrap;rounded=0;labelPosition=center;verticalLabelPosition=middle;movable=1;resizable=1;rotatable=1;deletable=1;editable=1;locked=0;connectable=1;" parent="1" vertex="1">
                    <mxGeometry x="500" y="190" width="40" height="20" as="geometry"/>
                </mxCell>
                <mxCell id="H0RL9zHFu7Bb7agK2Nix-21" value="" style="triangle;whiteSpace=wrap;html=1;rotation=90;movable=1;resizable=1;rotatable=1;deletable=1;editable=1;locked=0;connectable=1;" parent="1" vertex="1">
                    <mxGeometry x="275" y="275" width="10" height="20" as="geometry"/>
                </mxCell>
                <mxCell id="H0RL9zHFu7Bb7agK2Nix-22" value="" style="endArrow=none;html=1;rounded=0;strokeWidth=1;movable=1;resizable=1;rotatable=1;deletable=1;editable=1;locked=0;connectable=1;" parent="1" edge="1">
                    <mxGeometry width="50" height="50" relative="1" as="geometry">
                        <mxPoint x="279.93" y="280" as="sourcePoint"/>
                        <mxPoint x="280" y="270" as="targetPoint"/>
                        <Array as="points">
                            <mxPoint x="279.93" y="280"/>
                        </Array>
                    </mxGeometry>
                </mxCell>
                <mxCell id="H0RL9zHFu7Bb7agK2Nix-23" value="CLK" style="text;html=1;align=center;verticalAlign=middle;whiteSpace=wrap;rounded=0;movable=1;resizable=1;rotatable=1;deletable=1;editable=1;locked=0;connectable=1;" parent="1" vertex="1">
                    <mxGeometry x="270" y="260" width="20" height="10" as="geometry"/>
                </mxCell>
                <mxCell id="H0RL9zHFu7Bb7agK2Nix-24" value="RegWrite" style="text;html=1;align=right;verticalAlign=middle;whiteSpace=wrap;rounded=0;labelPosition=center;verticalLabelPosition=middle;movable=1;resizable=1;rotatable=1;deletable=1;editable=1;locked=0;connectable=1;" parent="1" vertex="1">
                    <mxGeometry x="480" y="210" width="60" height="20" as="geometry"/>
                </mxCell>
                <mxCell id="H0RL9zHFu7Bb7agK2Nix-25" value="Source" style="text;html=1;align=right;verticalAlign=middle;whiteSpace=wrap;rounded=0;labelPosition=center;verticalLabelPosition=middle;movable=1;resizable=1;rotatable=1;deletable=1;editable=1;locked=0;connectable=1;" parent="1" vertex="1">
                    <mxGeometry x="480" y="250" width="60" height="20" as="geometry"/>
                </mxCell>
                <mxCell id="H0RL9zHFu7Bb7agK2Nix-26" value="Destination" style="text;html=1;align=right;verticalAlign=middle;whiteSpace=wrap;rounded=0;labelPosition=center;verticalLabelPosition=middle;movable=1;resizable=1;rotatable=1;deletable=1;editable=1;locked=0;connectable=1;" parent="1" vertex="1">
                    <mxGeometry x="480" y="230" width="60" height="20" as="geometry"/>
                </mxCell>
                <mxCell id="H0RL9zHFu7Bb7agK2Nix-43" value="+" style="text;html=1;align=center;verticalAlign=middle;whiteSpace=wrap;rounded=0;fontSize=18;fontStyle=1" parent="1" vertex="1">
                    <mxGeometry x="340" y="370" width="20" height="20" as="geometry"/>
                </mxCell>
                <mxCell id="H0RL9zHFu7Bb7agK2Nix-44" value="" style="endArrow=none;html=1;rounded=0;" parent="1" edge="1">
                    <mxGeometry width="50" height="50" relative="1" as="geometry">
                        <mxPoint x="320" y="400" as="sourcePoint"/>
                        <mxPoint x="330" y="400" as="targetPoint"/>
                    </mxGeometry>
                </mxCell>
                <mxCell id="H0RL9zHFu7Bb7agK2Nix-45" value="1" style="text;html=1;align=center;verticalAlign=middle;whiteSpace=wrap;rounded=0;" parent="1" vertex="1">
                    <mxGeometry x="310" y="390" width="10" height="20" as="geometry"/>
                </mxCell>
                <mxCell id="H0RL9zHFu7Bb7agK2Nix-52" value="0" style="text;html=1;align=left;verticalAlign=middle;whiteSpace=wrap;rounded=0;spacingTop=2;" parent="1" vertex="1">
                    <mxGeometry x="230" y="280" width="20" height="20" as="geometry"/>
                </mxCell>
                <mxCell id="H0RL9zHFu7Bb7agK2Nix-53" value="1" style="text;html=1;align=left;verticalAlign=middle;whiteSpace=wrap;rounded=0;spacingBottom=2;" parent="1" vertex="1">
                    <mxGeometry x="230" y="300" width="20" height="20" as="geometry"/>
                </mxCell>
                <mxCell id="H0RL9zHFu7Bb7agK2Nix-54" value="" style="endArrow=none;html=1;rounded=0;strokeWidth=2;" parent="1" edge="1">
                    <mxGeometry width="50" height="50" relative="1" as="geometry">
                        <mxPoint x="210" y="290" as="sourcePoint"/>
                        <mxPoint x="230" y="289.87" as="targetPoint"/>
                    </mxGeometry>
                </mxCell>
                <mxCell id="H0RL9zHFu7Bb7agK2Nix-55" value="" style="endArrow=none;html=1;rounded=0;strokeWidth=2;" parent="1" edge="1">
                    <mxGeometry width="50" height="50" relative="1" as="geometry">
                        <mxPoint x="290" y="300" as="sourcePoint"/>
                        <mxPoint x="330" y="360" as="targetPoint"/>
                        <Array as="points">
                            <mxPoint x="310" y="300"/>
                            <mxPoint x="310" y="360"/>
                        </Array>
                    </mxGeometry>
                </mxCell>
                <mxCell id="H0RL9zHFu7Bb7agK2Nix-56" value="" style="endArrow=none;html=1;rounded=0;strokeWidth=2;entryX=0;entryY=0.5;entryDx=0;entryDy=0;" parent="1" target="H0RL9zHFu7Bb7agK2Nix-62" edge="1">
                    <mxGeometry width="50" height="50" relative="1" as="geometry">
                        <mxPoint x="360" y="380" as="sourcePoint"/>
                        <mxPoint x="170" y="280" as="targetPoint"/>
                        <Array as="points">
                            <mxPoint x="370" y="380"/>
                            <mxPoint x="370" y="420"/>
                            <mxPoint x="180" y="420"/>
                            <mxPoint x="180" y="280"/>
                        </Array>
                    </mxGeometry>
                </mxCell>
                <mxCell id="H0RL9zHFu7Bb7agK2Nix-57" value="" style="endArrow=none;html=1;rounded=0;strokeWidth=2;" parent="1" edge="1">
                    <mxGeometry width="50" height="50" relative="1" as="geometry">
                        <mxPoint x="250" y="300" as="sourcePoint"/>
                        <mxPoint x="270" y="299.73" as="targetPoint"/>
                    </mxGeometry>
                </mxCell>
                <mxCell id="H0RL9zHFu7Bb7agK2Nix-60" value="" style="endArrow=none;html=1;rounded=0;" parent="1" edge="1">
                    <mxGeometry width="50" height="50" relative="1" as="geometry">
                        <mxPoint x="210" y="290" as="sourcePoint"/>
                        <mxPoint x="210" y="290" as="targetPoint"/>
                        <Array as="points">
                            <mxPoint x="210" y="300"/>
                            <mxPoint x="190" y="310"/>
                            <mxPoint x="190" y="270"/>
                            <mxPoint x="210" y="280"/>
                        </Array>
                    </mxGeometry>
                </mxCell>
                <mxCell id="H0RL9zHFu7Bb7agK2Nix-61" value="" style="endArrow=none;html=1;rounded=0;" parent="1" edge="1">
                    <mxGeometry width="50" height="50" relative="1" as="geometry">
                        <mxPoint x="250" y="300" as="sourcePoint"/>
                        <mxPoint x="250" y="300" as="targetPoint"/>
                        <Array as="points">
                            <mxPoint x="250" y="310"/>
                            <mxPoint x="230" y="320"/>
                            <mxPoint x="230" y="280"/>
                            <mxPoint x="250" y="290"/>
                        </Array>
                    </mxGeometry>
                </mxCell>
                <mxCell id="H0RL9zHFu7Bb7agK2Nix-62" value="0" style="text;html=1;align=left;verticalAlign=middle;whiteSpace=wrap;rounded=0;spacingTop=2;" parent="1" vertex="1">
                    <mxGeometry x="190" y="270" width="20" height="20" as="geometry"/>
                </mxCell>
                <mxCell id="H0RL9zHFu7Bb7agK2Nix-63" value="1" style="text;html=1;align=left;verticalAlign=middle;whiteSpace=wrap;rounded=0;spacingBottom=2;" parent="1" vertex="1">
                    <mxGeometry x="190" y="290" width="20" height="20" as="geometry"/>
                </mxCell>
                <mxCell id="H0RL9zHFu7Bb7agK2Nix-64" value="" style="endArrow=none;html=1;rounded=0;" parent="1" edge="1">
                    <mxGeometry width="50" height="50" relative="1" as="geometry">
                        <mxPoint x="240" y="285" as="sourcePoint"/>
                        <mxPoint x="240" y="250" as="targetPoint"/>
                    </mxGeometry>
                </mxCell>
                <mxCell id="H0RL9zHFu7Bb7agK2Nix-65" value="" style="endArrow=none;html=1;rounded=0;" parent="1" edge="1">
                    <mxGeometry width="50" height="50" relative="1" as="geometry">
                        <mxPoint x="199.95" y="275" as="sourcePoint"/>
                        <mxPoint x="199.95" y="250" as="targetPoint"/>
                    </mxGeometry>
                </mxCell>
                <mxCell id="H0RL9zHFu7Bb7agK2Nix-66" value="" style="rounded=0;whiteSpace=wrap;html=1;fillColor=none;" parent="1" vertex="1">
                    <mxGeometry x="330" y="290" width="60" height="40" as="geometry"/>
                </mxCell>
                <mxCell id="H0RL9zHFu7Bb7agK2Nix-67" value="A" style="text;html=1;align=left;verticalAlign=middle;whiteSpace=wrap;rounded=0;" parent="1" vertex="1">
                    <mxGeometry x="330" y="290" width="30" height="20" as="geometry"/>
                </mxCell>
                <mxCell id="H0RL9zHFu7Bb7agK2Nix-68" value="ROM" style="text;html=1;align=center;verticalAlign=middle;whiteSpace=wrap;rounded=0;fontSize=16;fontStyle=1" parent="1" vertex="1">
                    <mxGeometry x="330" y="310" width="60" height="20" as="geometry"/>
                </mxCell>
                <mxCell id="H0RL9zHFu7Bb7agK2Nix-69" value="RD" style="text;html=1;align=right;verticalAlign=middle;whiteSpace=wrap;rounded=0;" parent="1" vertex="1">
                    <mxGeometry x="360" y="290" width="30" height="20" as="geometry"/>
                </mxCell>
                <mxCell id="H0RL9zHFu7Bb7agK2Nix-70" value="" style="endArrow=none;html=1;rounded=0;startArrow=oval;startFill=1;strokeWidth=2;" parent="1" edge="1">
                    <mxGeometry width="50" height="50" relative="1" as="geometry">
                        <mxPoint x="310" y="300" as="sourcePoint"/>
                        <mxPoint x="330" y="300" as="targetPoint"/>
                    </mxGeometry>
                </mxCell>
                <mxCell id="H0RL9zHFu7Bb7agK2Nix-72" value="" style="endArrow=oval;html=1;rounded=0;startArrow=none;startFill=0;endFill=1;strokeWidth=2;" parent="1" edge="1">
                    <mxGeometry width="50" height="50" relative="1" as="geometry">
                        <mxPoint x="230" y="310" as="sourcePoint"/>
                        <mxPoint x="310" y="360" as="targetPoint"/>
                        <Array as="points">
                            <mxPoint x="220" y="310"/>
                            <mxPoint x="220" y="360"/>
                        </Array>
                    </mxGeometry>
                </mxCell>
                <mxCell id="H0RL9zHFu7Bb7agK2Nix-73" value="" style="endArrow=none;html=1;rounded=0;anchorPointDirection=0;editable=1;movable=1;resizable=1;rotatable=1;deletable=1;locked=0;connectable=1;bendable=0;" parent="1" edge="1">
                    <mxGeometry width="50" height="50" relative="1" as="geometry">
                        <mxPoint x="255" y="365" as="sourcePoint"/>
                        <mxPoint x="260" y="355" as="targetPoint"/>
                    </mxGeometry>
                </mxCell>
                <mxCell id="H0RL9zHFu7Bb7agK2Nix-75" value="8" style="text;html=1;align=center;verticalAlign=middle;whiteSpace=wrap;rounded=0;" parent="1" vertex="1">
                    <mxGeometry x="250" y="365" width="10" height="15" as="geometry"/>
                </mxCell>
                <mxCell id="H0RL9zHFu7Bb7agK2Nix-76" value="Decoder" style="text;html=1;align=center;verticalAlign=middle;whiteSpace=wrap;rounded=0;fontSize=15;fontStyle=1" parent="1" vertex="1">
                    <mxGeometry x="440" y="160" width="100" height="30" as="geometry"/>
                </mxCell>
                <mxCell id="H0RL9zHFu7Bb7agK2Nix-77" value="" style="endArrow=none;html=1;rounded=0;" parent="1" edge="1">
                    <mxGeometry width="50" height="50" relative="1" as="geometry">
                        <mxPoint x="330" y="400" as="sourcePoint"/>
                        <mxPoint x="330" y="400" as="targetPoint"/>
                        <Array as="points">
                            <mxPoint x="330" y="390"/>
                            <mxPoint x="340" y="380"/>
                            <mxPoint x="330" y="370"/>
                            <mxPoint x="330" y="350"/>
                            <mxPoint x="360" y="370"/>
                            <mxPoint x="360" y="390"/>
                            <mxPoint x="330" y="410"/>
                        </Array>
                    </mxGeometry>
                </mxCell>
                <mxCell id="2" value="" style="endArrow=none;html=1;rounded=0;" parent="1" edge="1">
                    <mxGeometry width="50" height="50" relative="1" as="geometry">
                        <mxPoint x="655" y="150" as="sourcePoint"/>
                        <mxPoint x="655" y="150" as="targetPoint"/>
                        <Array as="points">
                            <mxPoint x="655" y="160"/>
                            <mxPoint x="635" y="170"/>
                            <mxPoint x="635" y="130"/>
                            <mxPoint x="655" y="139"/>
                        </Array>
                    </mxGeometry>
                </mxCell>
                <mxCell id="3" value="111" style="text;html=1;align=left;verticalAlign=middle;whiteSpace=wrap;rounded=0;spacingTop=0;spacingBottom=2;fontSize=10;" parent="1" vertex="1">
                    <mxGeometry x="635" y="150" width="20" height="20" as="geometry"/>
                </mxCell>
                <mxCell id="4" value="---" style="text;html=1;align=left;verticalAlign=middle;whiteSpace=wrap;rounded=0;spacingTop=2;" parent="1" vertex="1">
                    <mxGeometry x="635" y="130" width="20" height="20" as="geometry"/>
                </mxCell>
                <mxCell id="7" value="" style="endArrow=oval;html=1;strokeWidth=2;endFill=1;" parent="1" edge="1">
                    <mxGeometry width="50" height="50" relative="1" as="geometry">
                        <mxPoint x="390" y="300" as="sourcePoint"/>
                        <mxPoint x="420" y="300" as="targetPoint"/>
                    </mxGeometry>
                </mxCell>
                <mxCell id="9" value="" style="endArrow=none;html=1;rounded=0;" parent="1" edge="1">
                    <mxGeometry width="50" height="50" relative="1" as="geometry">
                        <mxPoint x="644.86" y="134" as="sourcePoint"/>
                        <mxPoint x="645" y="110" as="targetPoint"/>
                    </mxGeometry>
                </mxCell>
                <mxCell id="10" value="" style="endArrow=none;html=1;rounded=0;curved=0;strokeWidth=2;entryX=0.004;entryY=0.833;entryDx=0;entryDy=0;entryPerimeter=0;" parent="1" target="H0RL9zHFu7Bb7agK2Nix-14" edge="1">
                    <mxGeometry width="50" height="50" relative="1" as="geometry">
                        <mxPoint x="420" y="300" as="sourcePoint"/>
                        <mxPoint x="430" y="210" as="targetPoint"/>
                        <Array as="points">
                            <mxPoint x="420" y="260"/>
                        </Array>
                    </mxGeometry>
                </mxCell>
                <mxCell id="19" value="" style="endArrow=none;html=1;rounded=0;" parent="1" edge="1">
                    <mxGeometry width="50" height="50" relative="1" as="geometry">
                        <mxPoint x="740" y="150" as="sourcePoint"/>
                        <mxPoint x="740" y="150" as="targetPoint"/>
                        <Array as="points">
                            <mxPoint x="740" y="160"/>
                            <mxPoint x="720" y="170"/>
                            <mxPoint x="720" y="130"/>
                            <mxPoint x="740" y="139"/>
                        </Array>
                    </mxGeometry>
                </mxCell>
                <mxCell id="20" value="111" style="text;html=1;align=left;verticalAlign=middle;whiteSpace=wrap;rounded=0;spacingTop=0;spacingBottom=2;fontSize=10;" parent="1" vertex="1">
                    <mxGeometry x="720" y="150" width="20" height="20" as="geometry"/>
                </mxCell>
                <mxCell id="21" value="---" style="text;html=1;align=left;verticalAlign=middle;whiteSpace=wrap;rounded=0;spacingTop=2;" parent="1" vertex="1">
                    <mxGeometry x="720" y="130" width="20" height="20" as="geometry"/>
                </mxCell>
                <mxCell id="22" value="" style="endArrow=none;html=1;rounded=0;" parent="1" edge="1">
                    <mxGeometry width="50" height="50" relative="1" as="geometry">
                        <mxPoint x="729.86" y="134" as="sourcePoint"/>
                        <mxPoint x="730" y="110" as="targetPoint"/>
                    </mxGeometry>
                </mxCell>
                <mxCell id="23" value="" style="endArrow=none;html=1;strokeWidth=2;endFill=0;" parent="1" edge="1">
                    <mxGeometry width="50" height="50" relative="1" as="geometry">
                        <mxPoint x="420" y="300" as="sourcePoint"/>
                        <mxPoint x="620" y="300" as="targetPoint"/>
                        <Array as="points"/>
                    </mxGeometry>
                </mxCell>
                <mxCell id="24" value="" style="endArrow=none;html=1;entryX=1;entryY=0.5;entryDx=0;entryDy=0;exitX=0;exitY=0.5;exitDx=0;exitDy=0;rounded=0;curved=0;strokeWidth=2;" parent="1" source="H0RL9zHFu7Bb7agK2Nix-2" target="H0RL9zHFu7Bb7agK2Nix-25" edge="1">
                    <mxGeometry width="50" height="50" relative="1" as="geometry">
                        <mxPoint x="560" y="320" as="sourcePoint"/>
                        <mxPoint x="650" y="300" as="targetPoint"/>
                        <Array as="points">
                            <mxPoint x="430" y="430"/>
                            <mxPoint x="430" y="350"/>
                            <mxPoint x="570" y="350"/>
                            <mxPoint x="570" y="260"/>
                        </Array>
                    </mxGeometry>
                </mxCell>
                <mxCell id="25" value="" style="endArrow=none;html=1;entryX=0.997;entryY=0.663;entryDx=0;entryDy=0;exitX=0;exitY=0.5;exitDx=0;exitDy=0;rounded=0;curved=0;strokeWidth=2;entryPerimeter=0;" parent="1" source="H0RL9zHFu7Bb7agK2Nix-3" target="H0RL9zHFu7Bb7agK2Nix-14" edge="1">
                    <mxGeometry width="50" height="50" relative="1" as="geometry">
                        <mxPoint x="440" y="410" as="sourcePoint"/>
                        <mxPoint x="540" y="220" as="targetPoint"/>
                        <Array as="points">
                            <mxPoint x="410" y="450"/>
                            <mxPoint x="410" y="330"/>
                            <mxPoint x="580" y="330"/>
                            <mxPoint x="580" y="240"/>
                        </Array>
                    </mxGeometry>
                </mxCell>
                <mxCell id="26" value="" style="endArrow=none;html=1;rounded=0;anchorPointDirection=0;editable=1;movable=1;resizable=1;rotatable=1;deletable=1;locked=0;connectable=1;bendable=0;" parent="1" edge="1">
                    <mxGeometry width="50" height="50" relative="1" as="geometry">
                        <mxPoint x="555" y="265" as="sourcePoint"/>
                        <mxPoint x="560" y="255" as="targetPoint"/>
                    </mxGeometry>
                </mxCell>
                <mxCell id="27" value="3" style="text;html=1;align=center;verticalAlign=middle;whiteSpace=wrap;rounded=0;" parent="1" vertex="1">
                    <mxGeometry x="550" y="265" width="10" height="15" as="geometry"/>
                </mxCell>
                <mxCell id="28" value="" style="endArrow=none;html=1;rounded=0;anchorPointDirection=0;editable=1;movable=1;resizable=1;rotatable=1;deletable=1;locked=0;connectable=1;bendable=0;" parent="1" edge="1">
                    <mxGeometry width="50" height="50" relative="1" as="geometry">
                        <mxPoint x="405" y="305" as="sourcePoint"/>
                        <mxPoint x="410" y="295" as="targetPoint"/>
                    </mxGeometry>
                </mxCell>
                <mxCell id="29" value="8" style="text;html=1;align=center;verticalAlign=middle;whiteSpace=wrap;rounded=0;" parent="1" vertex="1">
                    <mxGeometry x="400" y="305" width="10" height="15" as="geometry"/>
                </mxCell>
                <mxCell id="32" value="" style="endArrow=none;html=1;rounded=0;anchorPointDirection=0;editable=1;movable=1;resizable=1;rotatable=1;deletable=1;locked=0;connectable=1;bendable=0;" parent="1" edge="1">
                    <mxGeometry width="50" height="50" relative="1" as="geometry">
                        <mxPoint x="555" y="245" as="sourcePoint"/>
                        <mxPoint x="560" y="235" as="targetPoint"/>
                    </mxGeometry>
                </mxCell>
                <mxCell id="33" value="3" style="text;html=1;align=center;verticalAlign=middle;whiteSpace=wrap;rounded=0;" parent="1" vertex="1">
                    <mxGeometry x="550" y="245" width="10" height="15" as="geometry"/>
                </mxCell>
                <mxCell id="34" value="" style="endArrow=none;html=1;entryX=0.5;entryY=0;entryDx=0;entryDy=0;rounded=0;curved=0;" parent="1" target="H0RL9zHFu7Bb7agK2Nix-13" edge="1">
                    <mxGeometry width="50" height="50" relative="1" as="geometry">
                        <mxPoint x="540" y="220" as="sourcePoint"/>
                        <mxPoint x="590" y="170" as="targetPoint"/>
                        <Array as="points">
                            <mxPoint x="590" y="220"/>
                            <mxPoint x="590" y="360"/>
                            <mxPoint x="510" y="360"/>
                        </Array>
                    </mxGeometry>
                </mxCell>
                <mxCell id="35" value="" style="endArrow=none;html=1;rounded=0;curved=0;" parent="1" edge="1">
                    <mxGeometry width="50" height="50" relative="1" as="geometry">
                        <mxPoint x="540" y="200" as="sourcePoint"/>
                        <mxPoint x="240" y="250" as="targetPoint"/>
                        <Array as="points">
                            <mxPoint x="560" y="200"/>
                            <mxPoint x="560" y="140"/>
                            <mxPoint x="240" y="140"/>
                        </Array>
                    </mxGeometry>
                </mxCell>
                <mxCell id="36" value="Reg6" style="text;html=1;align=right;verticalAlign=middle;whiteSpace=wrap;rounded=0;labelPosition=center;verticalLabelPosition=middle;movable=1;resizable=1;rotatable=1;deletable=1;editable=1;locked=0;connectable=1;" parent="1" vertex="1">
                    <mxGeometry x="500" y="480" width="40" height="20" as="geometry"/>
                </mxCell>
                <mxCell id="38" value="cpu_halt_DE_FE" style="text;html=1;align=center;verticalAlign=middle;whiteSpace=wrap;rounded=0;fontSize=10;fontStyle=2" parent="1" vertex="1">
                    <mxGeometry x="320" y="130" width="120" height="10" as="geometry"/>
                </mxCell>
                <mxCell id="39" value="" style="endArrow=none;html=1;strokeWidth=2;endFill=0;" edge="1" parent="1">
                    <mxGeometry width="50" height="50" relative="1" as="geometry">
                        <mxPoint x="620" y="270" as="sourcePoint"/>
                        <mxPoint x="700" y="270" as="targetPoint"/>
                        <Array as="points"/>
                    </mxGeometry>
                </mxCell>
            </root>
        </mxGraphModel>
    </diagram>
</mxfile>